<svg width="80" height="80" viewBox="0 0 80 80" fill="none" xmlns="http://www.w3.org/2000/svg">
<g filter="url(#filter0_d_75_2)">
<path d="M76 13.6714V62.337C76 65.4325 74.7704 68.4012 72.5816 70.59C70.3929 72.7788 67.4243 74.0085 64.3289 74.0085H15.6711C12.5757 74.0085 9.60714 72.7788 7.41838 70.59C5.22963 68.4012 4 65.4325 4 62.337V13.6714C4 10.576 5.22963 7.6073 7.41838 5.41848C9.60714 3.22967 12.5757 2 15.6711 2H64.3289C67.4243 2 70.3929 3.22967 72.5816 5.41848C74.7704 7.6073 76 10.576 76 13.6714Z" fill="#E8DBE5"/>
</g>
<path d="M61.2944 57.9847C55.7644 57.9847 53.2031 48.83 50.4912 39.1364C49.8121 36.7045 49.1076 34.1898 48.3692 31.9001C47.3867 28.857 46.4891 26.6607 45.5469 24.9843C44.0615 22.3423 42.4827 21.0584 40.7108 21.0584C38.1326 21.0584 35.915 23.1083 33.9373 27.327L33.8991 27.4119C32.9973 29.3515 32.1357 31.7728 31.2636 34.8158L31.2424 34.888C30.5145 37.4345 29.88 40.0362 29.2689 42.5508C27.9044 48.168 26.8243 52.6052 25.2795 54.2222C22.4063 57.2526 18.7225 57.0658 15.7623 56.9152C15.1808 56.8855 14.6312 56.8579 14.1283 56.8579H3.99994V55.7968H14.1389C14.6673 55.7968 15.2318 55.8244 15.8365 55.8562C18.5803 55.9963 21.9904 56.1682 24.5368 53.4923C25.8864 52.0705 27.0408 47.3212 28.2631 42.2919C28.8721 39.79 29.5023 37.1989 30.2281 34.6524L30.2471 34.5782C31.1278 31.5054 31.9999 29.0438 32.9124 27.0575L32.9612 26.9493C35.1426 22.2616 37.6848 19.9825 40.7363 19.9825C42.9241 19.9825 44.8105 21.4425 46.4975 24.4495C47.4758 26.1875 48.4074 28.4475 49.4047 31.5584C50.1516 33.8694 50.8583 36.3947 51.5416 38.8372C54.0265 47.7223 56.5983 56.9088 61.3219 56.9088C63.5013 56.9088 65.2477 56.1342 66.6652 54.5406C67.6859 53.3989 68.5241 51.8498 69.2307 49.8041C70.523 46.0671 71.1256 41.3412 71.7092 36.7703C72.2821 32.2778 72.8254 28.0358 73.9776 24.9206L74.9729 25.2898C73.8609 28.2905 73.3283 32.4752 72.7617 36.9061C72.1718 41.528 71.5628 46.309 70.2323 50.1521C69.4811 52.3315 68.5729 53.9994 67.4567 55.2451C66.6959 56.1289 65.7486 56.833 64.6831 57.3067C63.6175 57.7804 62.4602 58.012 61.2944 57.9847Z" fill="#E3B0B0"/>
<path d="M75.9999 49.9929H67.4482C66.0446 49.993 64.688 49.4871 63.6271 48.5681C62.5662 47.649 61.8722 46.3784 61.6721 44.9891L58.5633 23.4521C58.0859 20.3114 55.9023 18.6074 53.0822 18.6074C50.5357 18.6074 48.2376 19.8807 47.4928 22.7051L46.9368 24.7232L40.679 47.4571C40.5198 47.9345 40.4668 48.0937 40.1464 48.0937C39.8811 48.0937 39.775 47.9345 39.6689 47.4571L34.0689 27.1997L32.7957 22.6118C31.9978 19.7915 29.8249 18.5671 27.2615 18.5671C24.3861 18.5671 22.1517 20.2181 21.6721 23.3036L18.2323 45.0697C18.0146 46.442 17.3147 47.6916 16.2583 48.594C15.2019 49.4964 13.8583 49.9924 12.4689 49.9929H3.99994V54.9077H17.1798C18.5793 54.908 19.9323 54.4051 20.9918 53.4908C22.0514 52.5765 22.747 51.3117 22.9517 49.9272L26.6334 25.0988C26.7395 24.25 27.1108 23.8765 27.5904 23.8744C28.07 23.8723 28.3352 24.1948 28.5495 24.9355L31.3294 34.7331L35.8408 50.6487C36.4265 52.6731 38.2365 53.7363 40.1506 53.7363C42.1729 53.7363 43.8769 52.6753 44.4625 50.5532L49.8694 31.7452L51.8068 25.0034C51.9681 24.3116 52.2864 23.9423 52.766 23.9423C53.3517 23.9423 53.5639 24.4219 53.6721 25.1668L57.4132 53.3904C57.4651 53.8029 57.6667 54.1821 57.9796 54.4559C58.2925 54.7297 58.695 54.8791 59.1108 54.8758H60.7957C60.8026 54.8764 60.8091 54.8795 60.8138 54.8846C60.8186 54.8898 60.8212 54.8965 60.8211 54.9034C60.8211 54.9102 60.8238 54.9167 60.8286 54.9214C60.8334 54.9262 60.8399 54.9289 60.8466 54.9289H75.9999V49.9929Z" fill="#A186F2"/>
<defs>
<filter id="filter0_d_75_2" x="0" y="0" width="80" height="80.0085" filterUnits="userSpaceOnUse" color-interpolation-filters="sRGB">
<feFlood flood-opacity="0" result="BackgroundImageFix"/>
<feColorMatrix in="SourceAlpha" type="matrix" values="0 0 0 0 0 0 0 0 0 0 0 0 0 0 0 0 0 0 127 0" result="hardAlpha"/>
<feOffset dy="2"/>
<feGaussianBlur stdDeviation="2"/>
<feComposite in2="hardAlpha" operator="out"/>
<feColorMatrix type="matrix" values="0 0 0 0 0 0 0 0 0 0 0 0 0 0 0 0 0 0 0.25 0"/>
<feBlend mode="normal" in2="BackgroundImageFix" result="effect1_dropShadow_75_2"/>
<feBlend mode="normal" in="SourceGraphic" in2="effect1_dropShadow_75_2" result="shape"/>
</filter>
</defs>
</svg>
